<?xml version="1.0" encoding="UTF-8"?> <svg xmlns="http://www.w3.org/2000/svg" width="80" height="20" viewBox="0 0 80 20" fill="none"><g clip-path="url(#clip0_4662_62585)"><path d="M38.7496 2.9999V11.4999C38.7496 16.8749 34.6246 18.6249 32.7496 19.1249C32.2496 19.2499 31.4996 18.9999 31.2496 18.2499C31.1246 17.6249 31.4996 16.9999 32.1246 16.7499C33.9996 16.2499 36.2496 14.8749 36.2496 11.4999V2.9999C36.2496 2.3749 36.7496 1.7499 37.4996 1.7499C38.1246 1.7499 38.7496 2.2499 38.7496 2.9999ZM17.8746 13.3749C18.3746 14.3749 17.3746 15.7499 16.1246 14.9999C16.1246 14.9999 11.3746 11.8749 7.87463 10.4999L5.74963 14.4999C5.62463 14.8749 4.74963 15.4999 3.99963 14.9999C-1.87537 11.6249 -0.750375 4.9999 6.62463 7.2499L9.62463 1.4999C10.2496 0.499897 11.4996 0.749897 11.8746 1.4999L17.8746 13.3749ZM5.49963 9.6249C0.749625 8.2499 3.24963 11.4999 4.24963 12.1249L5.49963 9.6249ZM13.6246 10.4999L10.6246 4.8749L8.99963 8.2499C10.1246 8.6249 12.6246 9.9999 13.6246 10.4999ZM32.3746 8.3749C32.3746 12.1249 29.3746 15.1249 25.6246 15.1249H21.6246C20.8746 15.1249 20.3746 14.4999 20.3746 13.8749V2.9999C20.3746 2.2499 20.9996 1.7499 21.6246 1.7499H25.6246C29.3746 1.7499 32.3746 4.7499 32.3746 8.3749ZM29.8746 8.3749C29.8746 6.1249 27.9996 4.2499 25.7496 4.2499H22.9996V12.6249H25.7496C27.9996 12.6249 29.8746 10.7499 29.8746 8.3749ZM51.8746 2.9999V9.2499C51.8746 11.2499 50.4996 12.6249 48.4996 12.6249C46.4996 12.6249 45.1246 11.2499 45.1246 9.2499V2.9999C45.1246 1.3749 42.6246 1.3749 42.6246 2.9999V9.2499C42.6246 12.6249 45.1246 15.1249 48.4996 15.1249C51.8746 15.1249 54.3746 12.6249 54.3746 9.2499V2.9999C54.3746 1.3749 51.8746 1.3749 51.8746 2.9999ZM78.6246 1.7499H69.3746C67.7496 1.7499 67.7496 4.2499 69.3746 4.2499H72.7496V13.8749C72.7496 15.4999 75.2496 15.4999 75.2496 13.8749V4.2499H78.6246C80.3746 4.2499 80.3746 1.7499 78.6246 1.7499ZM59.3746 4.9999C59.4996 3.8749 61.7496 3.2499 63.6246 4.8749C64.8746 5.8749 66.4996 4.3749 65.3746 2.9999C63.2496 0.624897 56.8746 0.749897 56.8746 5.2499C56.8746 9.9999 64.2496 8.9999 63.4996 11.7499C63.1246 12.9999 60.2496 13.4999 58.8746 11.6249C57.7496 9.9999 55.7496 11.6249 56.7496 12.9999C59.6246 17.1249 66.1246 15.3749 66.1246 11.3749C66.1246 6.7499 59.2496 7.6249 59.3746 4.9999Z" fill="black"></path></g><defs><clipPath id="clip0_4662_62585"><rect width="80" height="20" fill="white"></rect></clipPath></defs></svg> 